{
  "asset": {
    "generator": "Khronos glTF Blender I/O v4.0.44",
    "version": "2.0"
  },
  "scene": 0,
  "scenes": [
    {
      "name": "Scene",
      "nodes": [
        0,
        1,
        2,
        3,
        4,
        5,
        6,
        7
      ]
    }
  ],
  "nodes": [
    {
      "mesh": 0,
      "name": "vintage_suitcase_01_bottom",
      "rotation": [
        1,
        0,
        0,
        7.549790126404332e-8
      ],
      "scale": [
        1.5871644020080566,
        1.5871644020080566,
        1.5871644020080566
      ],
      "translation": [
        0.45851653814315796,
        0.014374256134033203,
        0.005942255258560181
      ]
    },
    {
      "mesh": 1,
      "name": "vintage_suitcase_01_clasp",
      "rotation": [
        1,
        0,
        0,
        7.549790126404332e-8
      ],
      "scale": [
        1.5871644020080566,
        1.5871644020080566,
        1.5871644020080566
      ],
      "translation": [
        0.45719999074935913,
        0.5425642132759094,
        -0.030266910791397095
      ]
    },
    {
      "mesh": 2,
      "name": "vintage_suitcase_01_handle",
      "rotation": [
        1,
        0,
        0,
        7.549790126404332e-8
      ],
      "scale": [
        1.5871644020080566,
        1.5871644020080566,
        1.5871644020080566
      ],
      "translation": [
        0.45888400077819824,
        0.5479232668876648,
        -0.014395028352737427
      ]
    },
    {
      "mesh": 3,
      "name": "vintage_suitcase_01_top",
      "rotation": [
        1,
        0,
        0,
        7.549790126404332e-8
      ],
      "scale": [
        1.5871644020080566,
        1.5871644020080566,
        1.5871644020080566
      ],
      "translation": [
        0.45851653814315796,
        0.014374300837516785,
        0.005942255258560181
      ]
    },
    {
      "mesh": 4,
      "name": "vintage_suitcase_02_bottom",
      "rotation": [
        1,
        0,
        0,
        7.549790126404332e-8
      ],
      "scale": [
        1.5871644020080566,
        1.5871644020080566,
        1.5871644020080566
      ],
      "translation": [
        -0.4558834433555603,
        0.014374256134033203,
        0.005942255258560181
      ]
    },
    {
      "mesh": 5,
      "name": "vintage_suitcase_02_clasp",
      "rotation": [
        1,
        0,
        0,
        7.549790126404332e-8
      ],
      "scale": [
        1.5871644020080566,
        1.5871644020080566,
        1.5871644020080566
      ],
      "translation": [
        -0.45719999074935913,
        0.5425642132759094,
        -0.030266910791397095
      ]
    },
    {
      "mesh": 6,
      "name": "vintage_suitcase_02_handle",
      "rotation": [
        1,
        0,
        0,
        7.549790126404332e-8
      ],
      "scale": [
        1.5871644020080566,
        1.5871644020080566,
        1.5871644020080566
      ],
      "translation": [
        -0.45551598072052,
        0.5479232668876648,
        -0.014395028352737427
      ]
    },
    {
      "mesh": 7,
      "name": "vintage_suitcase_02_top",
      "rotation": [
        1,
        0,
        0,
        7.549790126404332e-8
      ],
      "scale": [
        1.5871644020080566,
        1.5871644020080566,
        1.5871644020080566
      ],
      "translation": [
        -0.4558834433555603,
        0.014374300837516785,
        0.005942255258560181
      ]
    }
  ],
  "materials": [
    {
      "doubleSided": true,
      "name": "vintage_suitcase_01",
      "normalTexture": {
        "index": 0
      },
      "pbrMetallicRoughness": {
        "baseColorTexture": {
          "index": 1
        },
        "metallicRoughnessTexture": {
          "index": 2
        }
      }
    },
    {
      "doubleSided": true,
      "name": "vintage_suitcase_02",
      "normalTexture": {
        "index": 3
      },
      "pbrMetallicRoughness": {
        "baseColorTexture": {
          "index": 4
        },
        "metallicRoughnessTexture": {
          "index": 5
        }
      }
    }
  ],
  "meshes": [
    {
      "name": "handle_mount.003",
      "primitives": [
        {
          "attributes": {
            "POSITION": 0,
            "NORMAL": 1,
            "TEXCOORD_0": 2
          },
          "indices": 3,
          "material": 0
        }
      ]
    },
    {
      "name": "latch.001",
      "primitives": [
        {
          "attributes": {
            "POSITION": 4,
            "NORMAL": 5,
            "TEXCOORD_0": 6
          },
          "indices": 7,
          "material": 0
        }
      ]
    },
    {
      "name": "Handle.001",
      "primitives": [
        {
          "attributes": {
            "POSITION": 8,
            "NORMAL": 9,
            "TEXCOORD_0": 10
          },
          "indices": 11,
          "material": 0
        }
      ]
    },
    {
      "name": "hinge_top.001",
      "primitives": [
        {
          "attributes": {
            "POSITION": 12,
            "NORMAL": 13,
            "TEXCOORD_0": 14
          },
          "indices": 15,
          "material": 0
        }
      ]
    },
    {
      "name": "handle_mount.001",
      "primitives": [
        {
          "attributes": {
            "POSITION": 16,
            "NORMAL": 17,
            "TEXCOORD_0": 18
          },
          "indices": 3,
          "material": 1
        }
      ]
    },
    {
      "name": "latch.002",
      "primitives": [
        {
          "attributes": {
            "POSITION": 19,
            "NORMAL": 20,
            "TEXCOORD_0": 21
          },
          "indices": 7,
          "material": 1
        }
      ]
    },
    {
      "name": "Handle.002",
      "primitives": [
        {
          "attributes": {
            "POSITION": 22,
            "NORMAL": 23,
            "TEXCOORD_0": 24
          },
          "indices": 11,
          "material": 1
        }
      ]
    },
    {
      "name": "hinge_top.002",
      "primitives": [
        {
          "attributes": {
            "POSITION": 25,
            "NORMAL": 26,
            "TEXCOORD_0": 27
          },
          "indices": 15,
          "material": 1
        }
      ]
    }
  ],
  "textures": [
    {
      "sampler": 0,
      "source": 0
    },
    {
      "sampler": 0,
      "source": 1
    },
    {
      "sampler": 0,
      "source": 2
    },
    {
      "sampler": 0,
      "source": 3
    },
    {
      "sampler": 0,
      "source": 4
    },
    {
      "sampler": 0,
      "source": 5
    }
  ],
  "images": [
    {
      "mimeType": "image/jpeg",
      "name": "vintage_suitcase_01_nor_gl",
      "uri": "textures/vintage_suitcase_01_nor_gl_1k.jpg"
    },
    {
      "mimeType": "image/jpeg",
      "name": "vintage_suitcase_01_diff",
      "uri": "textures/vintage_suitcase_01_diff_1k.jpg"
    },
    {
      "mimeType": "image/jpeg",
      "name": "vintage_suitcase_01_metal-vintage_suitcase_01_rough",
      "uri": "textures/vintage_suitcase_01_arm_1k.jpg"
    },
    {
      "mimeType": "image/jpeg",
      "name": "vintage_suitcase_02_nor_gl",
      "uri": "textures/vintage_suitcase_02_nor_gl_1k.jpg"
    },
    {
      "mimeType": "image/jpeg",
      "name": "vintage_suitcase_02_diff",
      "uri": "textures/vintage_suitcase_02_diff_1k.jpg"
    },
    {
      "mimeType": "image/jpeg",
      "name": "vintage_suitcase_02_metal-vintage_suitcase_02_rough",
      "uri": "textures/vintage_suitcase_02_arm_1k.jpg"
    }
  ],
  "accessors": [
    {
      "bufferView": 0,
      "componentType": 5126,
      "count": 3263,
      "max": [
        0.21818549931049347,
        0.009123116731643677,
        0.08490776270627975
      ],
      "min": [
        -0.2189355045557022,
        -0.3431802988052368,
        -0.000862807035446167
      ],
      "type": "VEC3"
    },
    {
      "bufferView": 1,
      "componentType": 5126,
      "count": 3263,
      "type": "VEC3"
    },
    {
      "bufferView": 2,
      "componentType": 5126,
      "count": 3263,
      "type": "VEC2"
    },
    {
      "bufferView": 3,
      "componentType": 5123,
      "count": 11592,
      "type": "SCALAR"
    },
    {
      "bufferView": 4,
      "componentType": 5126,
      "count": 400,
      "max": [
        0.1438950002193451,
        0.00164051353931427,
        0.0013844966888427734
      ],
      "min": [
        -0.1438950002193451,
        -0.0012104809284210205,
        -0.0394115075469017
      ],
      "type": "VEC3"
    },
    {
      "bufferView": 5,
      "componentType": 5126,
      "count": 400,
      "type": "VEC3"
    },
    {
      "bufferView": 6,
      "componentType": 5126,
      "count": 400,
      "type": "VEC2"
    },
    {
      "bufferView": 7,
      "componentType": 5123,
      "count": 1344,
      "type": "SCALAR"
    },
    {
      "bufferView": 8,
      "componentType": 5126,
      "count": 716,
      "max": [
        0.06274023652076721,
        0.007334664463996887,
        0.05103198438882828
      ],
      "min": [
        -0.06274022907018661,
        -0.01252305880188942,
        -0.004613572731614113
      ],
      "type": "VEC3"
    },
    {
      "bufferView": 9,
      "componentType": 5126,
      "count": 716,
      "type": "VEC3"
    },
    {
      "bufferView": 10,
      "componentType": 5126,
      "count": 716,
      "type": "VEC2"
    },
    {
      "bufferView": 11,
      "componentType": 5123,
      "count": 3648,
      "type": "SCALAR"
    },
    {
      "bufferView": 12,
      "componentType": 5126,
      "count": 2159,
      "max": [
        0.21818549931049347,
        0.009123146533966064,
        0.0010892152786254883
      ],
      "min": [
        -0.2189355045557022,
        -0.3338279128074646,
        -0.06578577309846878
      ],
      "type": "VEC3"
    },
    {
      "bufferView": 13,
      "componentType": 5126,
      "count": 2159,
      "type": "VEC3"
    },
    {
      "bufferView": 14,
      "componentType": 5126,
      "count": 2159,
      "type": "VEC2"
    },
    {
      "bufferView": 15,
      "componentType": 5123,
      "count": 8127,
      "type": "SCALAR"
    },
    {
      "bufferView": 16,
      "componentType": 5126,
      "count": 3263,
      "max": [
        0.21818549931049347,
        0.009123116731643677,
        0.08490776270627975
      ],
      "min": [
        -0.2189355045557022,
        -0.3431802988052368,
        -0.000862807035446167
      ],
      "type": "VEC3"
    },
    {
      "bufferView": 17,
      "componentType": 5126,
      "count": 3263,
      "type": "VEC3"
    },
    {
      "bufferView": 18,
      "componentType": 5126,
      "count": 3263,
      "type": "VEC2"
    },
    {
      "bufferView": 19,
      "componentType": 5126,
      "count": 400,
      "max": [
        0.1438950002193451,
        0.00164051353931427,
        0.0013844966888427734
      ],
      "min": [
        -0.1438950002193451,
        -0.0012104809284210205,
        -0.0394115075469017
      ],
      "type": "VEC3"
    },
    {
      "bufferView": 20,
      "componentType": 5126,
      "count": 400,
      "type": "VEC3"
    },
    {
      "bufferView": 21,
      "componentType": 5126,
      "count": 400,
      "type": "VEC2"
    },
    {
      "bufferView": 22,
      "componentType": 5126,
      "count": 716,
      "max": [
        0.06274023652076721,
        0.007334664463996887,
        0.05103198438882828
      ],
      "min": [
        -0.06274022907018661,
        -0.01252305880188942,
        -0.004613572731614113
      ],
      "type": "VEC3"
    },
    {
      "bufferView": 23,
      "componentType": 5126,
      "count": 716,
      "type": "VEC3"
    },
    {
      "bufferView": 24,
      "componentType": 5126,
      "count": 716,
      "type": "VEC2"
    },
    {
      "bufferView": 25,
      "componentType": 5126,
      "count": 2159,
      "max": [
        0.21818549931049347,
        0.009123146533966064,
        0.0010892152786254883
      ],
      "min": [
        -0.2189355045557022,
        -0.3338279128074646,
        -0.06578577309846878
      ],
      "type": "VEC3"
    },
    {
      "bufferView": 26,
      "componentType": 5126,
      "count": 2159,
      "type": "VEC3"
    },
    {
      "bufferView": 27,
      "componentType": 5126,
      "count": 2159,
      "type": "VEC2"
    }
  ],
  "bufferViews": [
    {
      "buffer": 0,
      "byteLength": 39156,
      "byteOffset": 0,
      "target": 34962
    },
    {
      "buffer": 0,
      "byteLength": 39156,
      "byteOffset": 39156,
      "target": 34962
    },
    {
      "buffer": 0,
      "byteLength": 26104,
      "byteOffset": 78312,
      "target": 34962
    },
    {
      "buffer": 0,
      "byteLength": 23184,
      "byteOffset": 104416,
      "target": 34963
    },
    {
      "buffer": 0,
      "byteLength": 4800,
      "byteOffset": 127600,
      "target": 34962
    },
    {
      "buffer": 0,
      "byteLength": 4800,
      "byteOffset": 132400,
      "target": 34962
    },
    {
      "buffer": 0,
      "byteLength": 3200,
      "byteOffset": 137200,
      "target": 34962
    },
    {
      "buffer": 0,
      "byteLength": 2688,
      "byteOffset": 140400,
      "target": 34963
    },
    {
      "buffer": 0,
      "byteLength": 8592,
      "byteOffset": 143088,
      "target": 34962
    },
    {
      "buffer": 0,
      "byteLength": 8592,
      "byteOffset": 151680,
      "target": 34962
    },
    {
      "buffer": 0,
      "byteLength": 5728,
      "byteOffset": 160272,
      "target": 34962
    },
    {
      "buffer": 0,
      "byteLength": 7296,
      "byteOffset": 166000,
      "target": 34963
    },
    {
      "buffer": 0,
      "byteLength": 25908,
      "byteOffset": 173296,
      "target": 34962
    },
    {
      "buffer": 0,
      "byteLength": 25908,
      "byteOffset": 199204,
      "target": 34962
    },
    {
      "buffer": 0,
      "byteLength": 17272,
      "byteOffset": 225112,
      "target": 34962
    },
    {
      "buffer": 0,
      "byteLength": 16254,
      "byteOffset": 242384,
      "target": 34963
    },
    {
      "buffer": 0,
      "byteLength": 39156,
      "byteOffset": 258640,
      "target": 34962
    },
    {
      "buffer": 0,
      "byteLength": 39156,
      "byteOffset": 297796,
      "target": 34962
    },
    {
      "buffer": 0,
      "byteLength": 26104,
      "byteOffset": 336952,
      "target": 34962
    },
    {
      "buffer": 0,
      "byteLength": 4800,
      "byteOffset": 363056,
      "target": 34962
    },
    {
      "buffer": 0,
      "byteLength": 4800,
      "byteOffset": 367856,
      "target": 34962
    },
    {
      "buffer": 0,
      "byteLength": 3200,
      "byteOffset": 372656,
      "target": 34962
    },
    {
      "buffer": 0,
      "byteLength": 8592,
      "byteOffset": 375856,
      "target": 34962
    },
    {
      "buffer": 0,
      "byteLength": 8592,
      "byteOffset": 384448,
      "target": 34962
    },
    {
      "buffer": 0,
      "byteLength": 5728,
      "byteOffset": 393040,
      "target": 34962
    },
    {
      "buffer": 0,
      "byteLength": 25908,
      "byteOffset": 398768,
      "target": 34962
    },
    {
      "buffer": 0,
      "byteLength": 25908,
      "byteOffset": 424676,
      "target": 34962
    },
    {
      "buffer": 0,
      "byteLength": 17272,
      "byteOffset": 450584,
      "target": 34962
    }
  ],
  "samplers": [
    {
      "magFilter": 9729,
      "minFilter": 9987
    }
  ],
  "buffers": [
    {
      "byteLength": 467856,
      "uri": "vintage_suitcase.bin"
    }
  ]
}